<svg width="36" height="36" viewBox="0 0 36 36" fill="none" xmlns="http://www.w3.org/2000/svg">
<rect x="0.75" y="0.75" width="34.5" height="34.5" rx="17.25" fill="#DCDCEB" stroke="#DCDCEB" stroke-width="1.5"/>
<path d="M17.8727 22.4429C17.6909 22.4429 17.5364 22.4 17.4091 22.3143C17.3 22.2143 17.2455 22.0929 17.2455 21.95V11.4929C17.2455 11.35 17.3 11.2357 17.4091 11.15C17.5364 11.05 17.6909 11 17.8727 11H19.1545C19.3364 11 19.4818 11.05 19.5909 11.15C19.7 11.2357 19.7545 11.35 19.7545 11.4929V21.95C19.7545 22.0929 19.7 22.2143 19.5909 22.3143C19.4818 22.4 19.3364 22.4429 19.1545 22.4429H17.8727ZM17.6273 26C17.4455 26 17.2909 25.9571 17.1636 25.8714C17.0545 25.7714 17 25.65 17 25.5071V24.1571C17 24 17.0545 23.8786 17.1636 23.7929C17.2909 23.6929 17.4455 23.6429 17.6273 23.6429H19.3727C19.5545 23.6429 19.7 23.6929 19.8091 23.7929C19.9364 23.8786 20 24 20 24.1571V25.5071C20 25.65 19.9364 25.7714 19.8091 25.8714C19.7 25.9571 19.5545 26 19.3727 26H17.6273Z" fill="black"/>
</svg>
