<svg width="40" height="40" viewBox="0 0 40 40" fill="none" xmlns="http://www.w3.org/2000/svg">
<circle opacity="0.1" cx="20" cy="20" r="20" fill="black"/>
<path d="M16.3738 13.7527C16.3738 13.3572 16.3622 12.985 16.3738 12.6244C16.3854 12.3103 16.6065 12.066 16.9089 12.0079C17.1997 11.9613 17.5138 12.1242 17.6185 12.415C17.665 12.5313 17.6766 12.6477 17.6766 12.7756C17.6883 13.0897 17.6766 13.4154 17.6766 13.7411C19.5611 13.7411 21.4339 13.7411 23.33 13.7411C23.33 13.4852 23.33 13.2293 23.33 12.9734C23.33 12.8454 23.3184 12.7175 23.3417 12.5895C23.3882 12.2405 23.679 11.9962 24.0163 12.0195C24.3537 12.0311 24.6212 12.3103 24.6329 12.6593C24.6445 13.0199 24.6329 13.3805 24.6329 13.7644C24.9818 13.7644 25.3075 13.7411 25.6216 13.7644C26.0171 13.7993 26.4126 13.8225 26.7849 13.9389C28.0877 14.3576 28.9834 15.6023 28.9834 16.9749C28.995 19.9063 28.995 22.8377 28.9834 25.7691C28.9718 27.5372 27.5293 28.9913 25.7496 28.9913C22.2482 29.0029 18.7468 29.0029 15.2338 28.9913C13.4541 28.9913 12 27.5256 12 25.7458C12.0116 22.8261 12.0116 19.9063 12.0116 16.9866C12.0116 15.2301 13.4308 13.7993 15.1873 13.7527C15.5712 13.7527 15.955 13.7527 16.3738 13.7527ZM13.3261 20.3018C13.3261 20.3949 13.3261 20.453 13.3261 20.5228C13.3261 22.2212 13.3261 23.9195 13.3261 25.6295C13.3261 26.8509 14.1636 27.7001 15.385 27.7001C18.805 27.7001 22.2133 27.7001 25.6333 27.7001C26.8547 27.7001 27.6922 26.8625 27.6922 25.6411C27.6922 23.9428 27.6922 22.2444 27.6922 20.5345C27.6922 20.4647 27.6922 20.3949 27.6922 20.3135C22.8996 20.3018 18.1187 20.3018 13.3261 20.3018ZM13.361 18.9641C18.1303 18.9641 22.9113 18.9641 27.6922 18.9641C27.6922 18.2429 27.7271 17.5449 27.6806 16.847C27.634 15.9862 26.9943 15.265 26.1451 15.1137C25.7263 15.0439 25.2959 15.0672 24.8655 15.0556C24.7957 15.0556 24.7259 15.0672 24.6329 15.0672C24.6329 15.4394 24.6329 15.7768 24.6329 16.1258C24.6212 16.5096 24.3537 16.7772 23.9931 16.7888C23.6441 16.8004 23.3649 16.5445 23.3417 16.1607C23.33 15.9396 23.3417 15.7303 23.3417 15.5092C23.3417 15.358 23.3417 15.2184 23.3417 15.0788C21.4456 15.0788 19.5727 15.0788 17.7115 15.0788C17.6883 15.1021 17.6883 15.1137 17.6883 15.1254C17.6883 15.4511 17.6883 15.7768 17.6766 16.1025C17.665 16.498 17.4207 16.7772 17.0718 16.7888C16.6879 16.8121 16.3854 16.5445 16.3738 16.1607C16.3622 15.8001 16.3738 15.4394 16.3738 15.0672C15.955 15.0672 15.5712 15.0556 15.1873 15.0672C14.28 15.1021 13.4657 15.7768 13.3726 16.6725C13.3028 17.4286 13.361 18.1963 13.361 18.9641Z" fill="black"/>
<path d="M23.9934 23.1167C24.4706 23.1167 24.8663 23.5124 24.8663 23.9779C24.8663 24.4551 24.459 24.8624 23.9818 24.8507C23.5047 24.8391 23.1206 24.4434 23.1206 23.9663C23.1206 23.5007 23.5163 23.1167 23.9934 23.1167Z" fill="black"/>
<path d="M17.8985 23.9898C17.8985 24.4669 17.5028 24.8626 17.0257 24.8626C16.5485 24.8626 16.1528 24.4669 16.1528 23.9898C16.1528 23.5126 16.5485 23.1053 17.0373 23.1169C17.5145 23.1169 17.8985 23.5126 17.8985 23.9898Z" fill="black"/>
<path d="M19.6426 23.9782C19.6426 23.501 20.0383 23.1053 20.5154 23.1169C20.9926 23.1169 21.3766 23.5126 21.3766 23.9898C21.3766 24.4669 20.9809 24.8626 20.5038 24.8626C20.0266 24.851 19.6426 24.4669 19.6426 23.9782Z" fill="black"/>
</svg>
