<svg width="30" height="30" viewBox="0 0 30 30" fill="none" xmlns="http://www.w3.org/2000/svg">
<path d="M28 11.393C27.8761 11.5814 27.768 11.7816 27.6256 11.9555C23.6583 16.8285 19.6884 21.6989 15.7185 26.5692C15.2531 27.141 14.7481 27.1436 14.2853 26.5771C10.2785 21.662 6.27172 16.7455 2.26491 11.8291C1.94452 11.4352 1.91815 11.1585 2.16734 10.7146C3.50558 8.31694 4.84646 5.92194 6.18074 3.52168C6.37719 3.16731 6.65143 3 7.06016 3C12.3498 3.00527 17.6382 3.00527 22.9279 3C23.3485 3 23.6253 3.17258 23.8257 3.53486C25.1548 5.92721 26.4917 8.31562 27.826 10.7067C27.8866 10.816 27.942 10.928 27.9987 11.0386C28 11.1559 28 11.2745 28 11.393ZM11.1527 12.0161C12.4289 15.8892 13.6999 19.7426 14.9709 23.5959C14.9907 23.5946 15.0092 23.5946 15.029 23.5933C16.3 19.7399 17.5696 15.8879 18.8472 12.0161C16.2644 12.0161 13.7276 12.0161 11.1527 12.0161ZM18.7708 10.4182C18.7576 10.3628 18.751 10.3207 18.7365 10.2838C18.0324 8.43814 17.3257 6.59381 16.6256 4.74684C16.5729 4.60588 16.4938 4.58085 16.3606 4.58085C15.464 4.58481 14.5662 4.59008 13.6696 4.57822C13.4798 4.57558 13.4112 4.64936 13.3492 4.81139C12.6702 6.60303 11.9833 8.39203 11.299 10.181C11.27 10.2548 11.2502 10.3325 11.2239 10.4182C13.754 10.4182 16.2551 10.4182 18.7708 10.4182ZM4.15558 10.4129C4.20964 10.4208 4.23996 10.43 4.27029 10.43C5.96188 10.4313 7.65215 10.4274 9.34374 10.4366C9.52173 10.4379 9.55206 10.3378 9.59688 10.2192C10.2825 8.42233 10.9681 6.62674 11.6537 4.82984C11.6814 4.75738 11.7025 4.68229 11.7341 4.58349C11.6128 4.58349 11.5298 4.58349 11.4454 4.58349C10.1941 4.58349 8.94292 4.58876 7.6917 4.57822C7.48075 4.5769 7.36472 4.63355 7.25925 4.82589C6.27304 6.61357 5.27364 8.39598 4.2782 10.1797C4.23601 10.2495 4.20173 10.3233 4.15558 10.4129ZM18.2618 4.58217C18.2856 4.66385 18.2948 4.70469 18.3093 4.74289C19.012 6.58063 19.7174 8.41574 20.4122 10.2561C20.4768 10.4261 20.577 10.4326 20.7194 10.4313C22.3438 10.4287 23.9695 10.43 25.5938 10.43C25.6676 10.43 25.7415 10.43 25.843 10.43C25.8113 10.3576 25.7955 10.3114 25.7731 10.2693C24.7434 8.42496 23.7124 6.58195 22.6879 4.73499C22.6101 4.59534 22.5152 4.57954 22.3807 4.57954C21.5171 4.58349 20.6548 4.58085 19.7912 4.58085C19.2929 4.58217 18.7945 4.58217 18.2618 4.58217ZM12.8258 22.2864C12.8377 22.2759 12.8495 22.2667 12.8614 22.2561C12.8522 22.2245 12.8443 22.1929 12.835 22.1613C11.742 18.8428 10.6464 15.5243 9.55733 12.2058C9.50723 12.0517 9.43339 12.0016 9.27122 12.003C7.73917 12.0095 6.20843 12.0069 4.67638 12.0069C4.621 12.0069 4.56562 12.0069 4.44696 12.0069C7.26584 15.4663 10.0465 18.8757 12.8258 22.2864ZM17.1332 22.2548C17.1451 22.2667 17.1583 22.2785 17.1701 22.289C19.9521 18.8757 22.7341 15.4611 25.5503 12.0056C23.9101 12.0056 22.3451 12.0095 20.7801 12.0003C20.5784 11.999 20.49 12.053 20.4254 12.2519C19.7622 14.2899 19.0859 16.3253 18.4148 18.3606C17.9876 19.6596 17.5604 20.9572 17.1332 22.2548Z" fill="#FFC220"/>
</svg>
