<svg width="30" height="30" viewBox="0 0 30 30" fill="none" xmlns="http://www.w3.org/2000/svg">
<path d="M4.28141 10.3486L4.28202 10.3475C4.5264 9.90063 4.8812 9.51448 5.47837 9.05705C6.08917 8.58917 6.90576 8.08131 8.05623 7.36688C8.05631 7.36684 8.05638 7.36679 8.05646 7.36675L10.4562 5.87768L10.4563 5.87765C11.673 5.12251 12.5376 4.58696 13.2625 4.23442C13.972 3.88937 14.4893 3.75 15 3.75C15.5107 3.75 16.0284 3.8894 16.738 4.23444C17.463 4.58695 18.3276 5.12249 19.5436 5.87756L19.5438 5.87768L21.9435 7.36675C21.9436 7.36677 21.9436 7.36678 21.9436 7.3668C21.9437 7.36683 21.9437 7.36686 21.9438 7.36688C23.0943 8.08136 23.9112 8.58921 24.5221 9.0571C25.1195 9.51456 25.474 9.90053 25.7177 10.3469L25.7184 10.3483C25.9638 10.7957 26.1028 11.3127 26.1753 12.083C26.2492 12.8686 26.25 13.8575 26.25 15.2448V17.07C26.25 19.431 26.2482 21.1288 26.08 22.4211C25.9143 23.6943 25.599 24.4606 25.0542 25.0245C24.5131 25.5845 23.7827 25.9058 22.5635 26.0754C21.32 26.2483 19.6845 26.25 17.4 26.25H12.6C10.3155 26.25 8.68027 26.2483 7.43698 26.0754C6.218 25.9058 5.48738 25.5846 4.94555 25.0242C4.4004 24.4605 4.08511 23.6941 3.91954 22.4207C3.75149 21.1282 3.75 19.4305 3.75 17.07V15.2436C3.75 13.8569 3.75077 12.868 3.8247 12.0824C3.89721 11.312 4.03617 10.7952 4.28141 10.3486ZM13.35 22.2C13.35 22.6376 13.5238 23.0573 13.8333 23.3667C14.1427 23.6762 14.5624 23.85 15 23.85C15.4376 23.85 15.8573 23.6762 16.1667 23.3667C16.4762 23.0573 16.65 22.6376 16.65 22.2V18.6C16.65 18.1624 16.4762 17.7427 16.1667 17.4333C15.8573 17.1238 15.4376 16.95 15 16.95C14.5624 16.95 14.1427 17.1238 13.8333 17.4333C13.5238 17.7427 13.35 18.1624 13.35 18.6V22.2Z" stroke="white" stroke-width="1.5"/>
</svg>
