<svg width="30" height="30" viewBox="0 0 30 30" fill="none" xmlns="http://www.w3.org/2000/svg">
<path d="M15.0128 26.9846C13.6061 26.9846 12.1979 27.0111 10.7919 26.9769C9.47674 26.9447 8.18537 26.735 6.96111 26.2162C5.14814 25.4478 4.03645 24.0711 3.47781 22.2134C3.18485 21.238 3.02334 20.2375 3.01565 19.2244C2.99608 16.4067 2.99328 13.589 3.01635 10.7714C3.02544 9.66176 3.21072 8.56895 3.56591 7.50969C4.26648 5.42055 5.6977 4.10191 7.79523 3.47684C8.78945 3.18109 9.80885 3.02168 10.8415 3.01469C13.6382 2.99651 16.4349 2.99301 19.2317 3.01678C20.4412 3.02727 21.6312 3.22724 22.7723 3.65373C24.7398 4.38927 25.9696 5.80091 26.5604 7.79356C26.8751 8.85421 27.0247 9.94213 27.0289 11.044C27.0394 13.7659 27.0422 16.4878 27.0198 19.2097C27.0114 20.2578 26.8436 21.2926 26.5311 22.2994C25.8354 24.5423 24.3321 25.9442 22.0773 26.5664C20.837 26.909 19.5694 27.0027 18.2892 26.9999C17.1964 26.9978 16.1042 26.9992 15.0114 26.9992C15.0128 26.9943 15.0128 26.9895 15.0128 26.9846ZM15.031 4.68432C15.031 4.68013 15.031 4.67523 15.031 4.67104C13.9207 4.67104 12.8111 4.67243 11.7008 4.67034C10.6325 4.66894 9.57183 4.73536 8.53006 4.99685C6.75485 5.44363 5.57814 6.51267 5.06494 8.28158C4.82512 9.10731 4.69717 9.95401 4.69158 10.8098C4.6748 13.4884 4.6776 16.1669 4.68109 18.8454C4.68249 19.7376 4.78177 20.6207 5.00341 21.4869C5.42921 23.1566 6.41225 24.3207 8.07909 24.864C8.98383 25.159 9.91723 25.2995 10.8632 25.3065C13.4327 25.3254 16.0029 25.3191 18.5723 25.3212C19.633 25.3219 20.6838 25.2345 21.7095 24.943C23.3582 24.4745 24.4482 23.4376 24.946 21.7876C25.2075 20.9206 25.3404 20.0326 25.3467 19.1328C25.3641 16.4808 25.3774 13.8282 25.3467 11.1762C25.3369 10.3623 25.239 9.538 25.0782 8.73885C24.6775 6.74759 23.4854 5.45481 21.4781 5.00315C20.7328 4.83534 19.9623 4.72487 19.1995 4.6983C17.8116 4.64936 16.4203 4.68432 15.031 4.68432Z" fill="white"/>
<path d="M18.3688 12.334C17.4165 12.334 16.4642 12.3354 15.5126 12.3333C14.9763 12.3326 14.5995 11.9893 14.5967 11.5069C14.5939 11.0244 14.9708 10.6623 15.5014 10.6609C17.4144 10.6567 19.3273 10.6567 21.2403 10.6609C21.7661 10.6623 22.1513 11.0342 22.1464 11.5104C22.1422 11.9921 21.7633 12.3326 21.2249 12.334C20.2733 12.3354 19.321 12.334 18.3688 12.334Z" fill="white"/>
<path d="M18.3834 18.486C19.3616 18.486 20.3397 18.4783 21.3179 18.4895C21.7297 18.4944 22.0338 18.7622 22.1254 19.1467C22.2058 19.4837 22.0499 19.8732 21.7255 20.034C21.5612 20.1151 21.3591 20.1514 21.1731 20.1521C19.7496 20.1612 18.3261 20.1577 16.9026 20.157C16.4131 20.157 15.9244 20.1647 15.4357 20.1535C15.0358 20.1438 14.7232 19.8934 14.6226 19.532C14.5282 19.1943 14.6631 18.8097 14.9826 18.6272C15.1337 18.5405 15.3259 18.4986 15.5021 18.4888C15.8853 18.4685 16.2705 18.4818 16.6544 18.4818C17.2305 18.4818 17.8073 18.4818 18.3834 18.4818C18.3834 18.4839 18.3834 18.4846 18.3834 18.486Z" fill="white"/>
<path d="M9.53901 19.0069C10.1913 18.3546 10.8101 17.7414 11.4219 17.1212C11.6624 16.8772 11.9435 16.7702 12.2763 16.8485C12.9014 16.9954 13.1202 17.7512 12.6734 18.2371C12.3847 18.5517 12.0714 18.8447 11.7694 19.1467C11.2569 19.6585 10.7458 20.1717 10.2312 20.6814C9.78792 21.1205 9.32506 21.1177 8.88318 20.6786C8.63568 20.4325 8.38537 20.1892 8.14346 19.9382C7.80156 19.5823 7.79736 19.0712 8.12668 18.7419C8.45459 18.414 8.96918 18.4189 9.32506 18.7573C9.39428 18.823 9.45022 18.902 9.53901 19.0069Z" fill="white"/>
<path d="M9.56333 11.1622C10.187 10.5392 10.7848 9.92812 11.4008 9.33592C11.5441 9.19818 11.7392 9.08002 11.9307 9.03248C12.2887 8.94229 12.6264 9.11778 12.8005 9.42052C12.9795 9.73166 12.948 10.1169 12.6956 10.3931C12.4663 10.6448 12.2181 10.8783 11.9776 11.1195C11.3973 11.6998 10.8184 12.2816 10.2345 12.8591C9.78357 13.3051 9.33051 13.3037 8.88443 12.8619C8.64881 12.6283 8.41249 12.3948 8.18036 12.1585C7.807 11.7788 7.78602 11.2615 8.12652 10.9224C8.46283 10.5874 8.98511 10.6098 9.36756 10.9762C9.4235 11.03 9.48013 11.0832 9.56333 11.1622Z" fill="white"/>
</svg>
