<svg width="30" height="30" viewBox="0 0 30 30" fill="none" xmlns="http://www.w3.org/2000/svg">
<path d="M15.4951 11.435C15.4951 11.3554 15.4951 11.2651 15.4951 11.1748C15.4951 9.43375 15.4993 7.69205 15.4923 5.95102C15.4909 5.55266 15.6126 5.23452 16.0056 5.06938C16.3896 4.90828 16.7054 5.04444 16.9975 5.30596C20.5408 8.48067 24.0882 11.6513 27.6336 14.824C28.1191 15.2581 28.1226 15.7373 27.6412 16.168C24.0834 19.3528 20.5241 22.535 16.9662 25.7198C16.6783 25.9773 16.3604 26.0851 15.9917 25.924C15.6259 25.7636 15.4923 25.465 15.493 25.0842C15.4979 23.3431 15.4951 21.6014 15.4951 19.8604C15.4951 19.7687 15.4951 19.6764 15.4951 19.5874C15.157 19.5874 14.8308 19.5733 14.5074 19.5901C13.1795 19.6575 11.869 19.8341 10.5801 20.1651C8.06911 20.8101 6.26757 22.2788 5.11917 24.5234C4.93832 24.8772 4.75329 25.2291 4.55714 25.5755C4.37212 25.9011 4.00068 26.0588 3.65498 25.98C3.27241 25.8923 3.00114 25.589 3.00044 25.2008C2.99418 23.2144 3.04983 21.2314 3.46578 19.276C3.78297 17.7864 4.31926 16.3851 5.29654 15.1725C6.47763 13.7071 8.05728 12.8248 9.85744 12.2728C11.6006 11.7383 13.3986 11.5475 15.2155 11.4768C15.285 11.4741 15.3539 11.47 15.4234 11.4646C15.4387 11.4633 15.4533 11.4525 15.4951 11.435ZM17.161 7.65295C17.161 7.80326 17.161 7.89156 17.161 7.98053C17.161 9.39331 17.1631 10.8061 17.1596 12.2189C17.1582 12.7399 16.8181 13.0641 16.2818 13.0776C15.6836 13.0924 15.084 13.0971 14.4872 13.1315C12.8895 13.2245 11.314 13.4402 9.80388 13.9875C7.99816 14.642 6.60492 15.7468 5.77997 17.4662C5.27011 18.5292 5.01831 19.6589 4.87224 20.8148C4.82494 21.1909 4.79294 21.5691 4.75329 21.9459C4.83398 21.9378 4.85346 21.9108 4.87363 21.8852C6.22792 20.1704 8.0552 19.1776 10.1677 18.6128C12.141 18.085 14.1589 17.9367 16.1941 17.9225C16.8292 17.9178 17.1589 18.2353 17.1596 18.848C17.1603 20.2439 17.1596 21.6398 17.1596 23.0358C17.1596 23.1214 17.1596 23.2063 17.1596 23.3458C20.1151 20.7009 23.0184 18.1039 25.9294 15.4987C23.0038 12.8801 20.1068 10.2878 17.161 7.65295Z" fill="white"/>
</svg>
