<svg width="80" height="80" viewBox="0 0 80 80" fill="none" xmlns="http://www.w3.org/2000/svg">
<rect width="80" height="80" rx="10" fill="#1DAEFF" fill-opacity="0.1"/>
<path d="M59 43.3531C58.904 43.7073 58.8278 44.0675 58.7101 44.4139C58.0302 46.4148 56.1965 47.7923 54.0838 47.8853C53.5157 47.9101 52.9467 47.9002 52.3777 47.8952C51.5999 47.8883 51.1397 47.4242 51.1397 46.6414C51.1368 43.6667 51.1526 40.6921 51.1318 37.7184C51.1229 36.3884 51.1635 35.0406 50.9745 33.7313C50.2966 29.0377 46.5402 25.2932 41.8604 24.5292C36.103 23.5891 30.6732 27.0883 29.2274 32.7239C28.9849 33.669 28.889 34.6724 28.8781 35.6501C28.8385 39.2661 28.8622 42.883 28.8622 46.4989C28.8622 47.4044 28.5792 47.7953 27.6896 47.8982C24.799 48.2347 22.3735 47.1728 21.3394 44.5544C21.187 44.1695 21.1108 43.7548 21 43.354C21 41.8974 21 40.4397 21 38.9831C21.0228 38.9128 21.0534 38.8445 21.0663 38.7733C21.4562 36.5566 23.0376 34.9258 25.2374 34.5002C25.656 34.4191 26.0874 34.4082 26.509 34.3657C26.9256 27.9245 32.3644 22.4382 39.1104 22.0285C42.1979 21.8405 45.0558 22.5787 47.603 24.3432C51.1091 26.7726 53.0328 30.155 53.49 34.4042C53.6473 34.4042 53.7819 34.4013 53.9165 34.4042C56.241 34.4706 58.2093 36.0054 58.8189 38.232C58.8872 38.4803 58.9396 38.7327 59 38.9831C59 40.4397 59 41.8964 59 43.3531Z" fill="#0071CE"/>
<path d="M40.0127 57.7367C39.5179 57.7367 39.0241 57.7456 38.5293 57.7357C37.2013 57.709 36.1741 56.6857 36.1632 55.3844C36.1513 54.1148 37.1666 53.0421 38.4669 53.0025C39.4921 52.9708 40.5193 52.9699 41.5436 53.0035C42.8429 53.0461 43.8562 54.1287 43.8364 55.3953C43.8156 56.6848 42.8003 57.705 41.4951 57.7347C41.0013 57.7466 40.5065 57.7367 40.0127 57.7367Z" fill="#0071CE"/>
<path d="M34.8493 54.7148C34.8493 55.1651 34.8493 55.5708 34.8493 55.9785C30.5565 56.5258 26.5962 53.3215 26.0391 49.2969C26.4666 49.2969 26.8921 49.2969 27.3176 49.2969C28.417 53.0494 30.9514 54.8257 34.8493 54.7148Z" fill="#0071CE"/>
</svg>
