<svg width="80" height="80" viewBox="0 0 80 80" fill="none" xmlns="http://www.w3.org/2000/svg">
<rect width="80" height="80" rx="10" fill="#1DAEFF" fill-opacity="0.1"/>
<path d="M23 39.2046C23.2961 38.6033 23.8343 38.2864 24.4246 38.0584C26.7686 37.1539 29.1171 36.262 31.4656 35.3683C39.509 32.3077 47.5515 29.2471 55.5958 26.1892C55.7858 26.1165 55.985 26.0511 56.1852 26.0221C57.2635 25.8704 58.0302 26.5098 57.9991 27.6459C57.979 28.3843 57.8127 29.1245 57.6564 29.8519C56.0033 37.5862 54.342 45.3186 52.6734 53.0491C52.5884 53.4424 52.455 53.8384 52.2695 54.1953C51.9113 54.8855 51.2935 55.1453 50.5469 54.9219C50.1832 54.8129 49.815 54.6512 49.5088 54.4314C46.9986 52.6259 44.503 50.8004 42.0019 48.9813C41.9013 48.9087 41.7999 48.8378 41.6775 48.7497C41.5778 48.8369 41.4837 48.9141 41.396 48.9968C40.1176 50.2092 38.8391 51.4207 37.5644 52.6359C37.1861 52.9965 36.752 53.2081 36.1699 53.199C36.2028 52.7086 36.2339 52.2281 36.2686 51.7477C36.4212 49.6243 36.5701 47.5001 36.7355 45.3776C36.7474 45.2205 36.8443 45.0325 36.9631 44.9262C41.8072 40.5896 46.6587 36.262 51.5083 31.9326C51.5421 31.9027 51.5887 31.879 51.6088 31.8418C51.7002 31.6738 51.7852 31.5021 51.872 31.3323C51.6636 31.2914 51.4443 31.1915 51.2497 31.2261C51.013 31.2678 50.7836 31.4032 50.5743 31.5339C44.5386 35.283 38.5056 39.0366 32.4671 42.782C32.3346 42.8646 32.1199 42.91 31.9764 42.8664C29.4086 42.0863 26.8453 41.2907 24.2821 40.4978C23.7621 40.3371 23.2906 40.1055 23.0009 39.6142C23 39.4761 23 39.3399 23 39.2046Z" fill="#0071CE"/>
</svg>
