<svg width="50" height="50" viewBox="0 0 50 50" fill="none" xmlns="http://www.w3.org/2000/svg">
<rect width="50" height="50" rx="10" fill="#1DAEFF" fill-opacity="0.1"/>
<path d="M37.454 27.7413C37.3923 27.9693 37.3432 28.2011 37.2675 28.424C36.83 29.7116 35.6499 30.5981 34.2903 30.6579C33.9248 30.6739 33.5586 30.6675 33.1924 30.6643C32.6919 30.6598 32.3958 30.3612 32.3958 29.8574C32.3938 27.9431 32.404 26.0289 32.3907 24.1152C32.3849 23.2593 32.411 22.392 32.2894 21.5494C31.8532 18.529 29.4358 16.1192 26.4243 15.6276C22.7192 15.0226 19.225 17.2744 18.2946 20.9011C18.1385 21.5093 18.0768 22.1551 18.0698 22.7842C18.0443 25.1112 18.0596 27.4388 18.0596 29.7657C18.0596 30.3484 17.8774 30.6 17.3049 30.6662C15.4448 30.8827 13.8839 30.1994 13.2184 28.5144C13.1204 28.2667 13.0713 27.9998 13 27.7419C13 26.8045 13 25.8665 13 24.9291C13.0146 24.8838 13.0344 24.8399 13.0427 24.7941C13.2936 23.3676 14.3112 22.3181 15.7269 22.0442C15.9963 21.992 16.2739 21.985 16.5452 21.9576C16.8133 17.8126 20.3133 14.282 24.6545 14.0184C26.6414 13.8974 28.4806 14.3724 30.1197 15.5079C32.376 17.0713 33.614 19.248 33.9082 21.9825C34.0095 21.9825 34.0961 21.9806 34.1827 21.9825C35.6786 22.0251 36.9452 23.0129 37.3375 24.4457C37.3814 24.6056 37.4152 24.7679 37.454 24.9291C37.454 25.8665 37.454 26.8039 37.454 27.7413Z" fill="#0071CE"/>
<path d="M25.2354 36.9976C24.917 36.9976 24.5992 37.0033 24.2808 36.9969C23.4262 36.9797 22.7651 36.3212 22.7581 35.4838C22.7505 34.6668 23.4039 33.9765 24.2406 33.951C24.9004 33.9306 25.5614 33.93 26.2205 33.9516C27.0567 33.979 27.7088 34.6757 27.6961 35.4908C27.6827 36.3206 27.0293 36.9772 26.1893 36.9963C25.8716 37.0039 25.5531 36.9976 25.2354 36.9976Z" fill="#0071CE"/>
<path d="M21.9123 35.0525C21.9123 35.3423 21.9123 35.6034 21.9123 35.8658C19.1498 36.2179 16.6012 34.1559 16.2427 31.5659C16.5178 31.5659 16.7916 31.5659 17.0655 31.5659C17.773 33.9808 19.4039 35.1239 21.9123 35.0525Z" fill="#0071CE"/>
</svg>
