<svg width="55" height="55" viewBox="0 0 55 55" fill="none" xmlns="http://www.w3.org/2000/svg">
<rect width="55" height="55" rx="27.5" fill="#1DAEFF" fill-opacity="0.1"/>
<path d="M35.8718 27.8746C35.7362 27.8746 35.64 27.8746 35.5444 27.8746C30.7414 27.8746 25.9383 27.8752 21.1353 27.8739C19.9735 27.8739 19.0654 27.2048 18.7851 26.1465C18.7587 26.0466 18.7315 25.9441 18.7244 25.8417C18.5817 23.8901 18.8639 22.0333 19.9864 20.3693C20.111 20.1842 20.2499 20.003 20.4081 19.8468C20.5211 19.7354 20.505 19.6566 20.4391 19.5382C20.0936 18.9158 19.7578 18.2884 19.4109 17.6667C19.2521 17.3817 19.2191 17.1051 19.4335 16.8407C19.6493 16.575 19.9328 16.5519 20.2441 16.648C20.5127 16.7306 20.7866 16.7972 21.0552 16.8823C21.1928 16.9259 21.2909 16.9111 21.3936 16.7985C21.577 16.5974 21.7753 16.4092 21.9729 16.2203C22.3062 15.9014 22.7311 15.9315 23.0211 16.2933C23.1412 16.4431 23.2549 16.598 23.4106 16.8023C23.5901 16.6102 23.7522 16.4252 23.9266 16.2523C24.2934 15.888 24.7203 15.9213 25.0393 16.3323C25.1762 16.5084 25.3099 16.687 25.4514 16.8734C25.691 16.7562 25.9131 16.6454 26.1372 16.5391C26.4453 16.3932 26.7301 16.4233 26.9419 16.6307C27.168 16.8522 27.2054 17.1115 27.0853 17.4003C26.7947 18.1014 26.5099 18.8044 26.2147 19.5036C26.1502 19.656 26.1508 19.7693 26.247 19.9192C26.4324 20.2073 26.5738 20.5229 26.745 20.8207C26.7811 20.8841 26.8644 20.9602 26.9284 20.9615C27.4018 20.9737 27.8758 20.9679 28.3789 20.9679C28.3789 20.8655 28.3789 20.781 28.3789 20.6958C28.3789 19.4255 28.3783 18.1546 28.3789 16.8843C28.3789 16.4892 28.5023 16.3656 28.8949 16.3656C30.0955 16.365 31.2961 16.365 32.4974 16.3656C32.8945 16.3656 33.0205 16.4886 33.0205 16.8772C33.0211 18.4593 33.0205 20.0414 33.0205 21.6242C33.0205 21.7119 33.0205 21.7996 33.0205 21.9258C33.0883 21.8733 33.1374 21.8425 33.1774 21.8035C33.3899 21.596 33.5991 21.3854 33.8103 21.1767C34.0951 20.8956 34.2643 20.8937 34.5453 21.1715C35.1272 21.7471 35.7084 22.324 36.2897 22.9003C36.683 23.2902 37.075 23.6814 37.4696 24.0694C37.6084 24.2064 37.715 24.3505 37.633 24.556C37.5471 24.7692 37.3688 24.8166 37.1596 24.8057C37.0802 24.8019 37.0001 24.8051 36.9045 24.8051C36.9045 25.3653 36.9045 25.9134 36.9045 26.4032C37.2306 26.3968 37.571 26.3354 37.8887 26.3949C38.625 26.5326 39.09 27.2522 38.9853 27.9917C38.7677 29.5297 38.3776 31.0138 37.5606 32.3571C35.8912 35.0994 33.4713 36.7731 30.2828 37.3174C29.6751 37.4211 29.0493 37.455 28.4312 37.4582C25.6832 37.4729 22.9352 37.4646 20.1872 37.4646C20.0916 37.4646 19.9961 37.4646 19.8682 37.4646C19.8682 37.7066 19.8695 37.9352 19.8682 38.1638C19.8637 38.6869 19.5517 38.9968 19.0228 38.9981C18.2975 39.0006 17.5723 39.0006 16.847 38.9981C16.3168 38.9962 16.001 38.6875 16.001 38.1651C15.9997 35.4004 15.9997 32.635 16.001 29.8703C16.001 29.3363 16.3174 29.0271 16.8599 29.0258C17.5774 29.0245 18.2943 29.0239 19.0118 29.0258C19.5563 29.0271 19.8656 29.3338 19.8688 29.8729C19.8701 30.104 19.8688 30.3352 19.8688 30.5964C19.9509 30.556 20.0148 30.5298 20.0736 30.4952C21.7663 29.513 23.5946 29.0264 25.5547 29.0258C27.3598 29.0252 29.1649 29.0271 30.97 29.0252C31.8916 29.0245 32.5335 29.4375 32.8907 30.2827C32.9029 30.3115 32.921 30.3377 32.9488 30.3883C33.2446 30.2647 33.5391 30.1437 33.831 30.0182C34.2372 29.8441 34.7209 29.7506 35.0245 29.4676C35.328 29.1846 35.4507 28.7114 35.6509 28.3208C35.7187 28.187 35.784 28.0513 35.8718 27.8746ZM19.8675 36.6969C20.0012 36.6969 20.0975 36.6969 20.1937 36.6969C22.9572 36.6969 25.7213 36.7008 28.4848 36.6931C28.9505 36.6918 29.4206 36.6688 29.8811 36.6041C32.7434 36.1994 34.9806 34.7921 36.6074 32.4276C37.5606 31.0427 38.0018 29.4765 38.2278 27.8387C38.2665 27.5596 38.0844 27.2778 37.8209 27.1645C37.4728 27.0147 37.1066 27.1562 36.9161 27.5288C36.5273 28.2908 36.1405 29.0533 35.7633 29.821C35.669 30.0137 35.5353 30.1341 35.3377 30.2154C34.6099 30.5164 33.8859 30.825 33.1645 31.1393C33.0883 31.1726 32.9985 31.2482 32.9772 31.3218C32.6691 32.3661 32.0091 32.861 30.9067 32.8617C28.997 32.8617 27.0873 32.8617 25.1775 32.8617C25.091 32.8617 25.0051 32.8617 24.9121 32.8617C24.9121 32.5947 24.9121 32.3527 24.9121 32.0946C25.0225 32.0946 25.1181 32.0946 25.2137 32.0946C27.1473 32.0946 29.0816 32.0959 31.0152 32.094C31.7198 32.0933 32.2423 31.6048 32.2461 30.9511C32.25 30.2955 31.7282 29.7948 31.0307 29.7935C29.1533 29.7916 27.2758 29.7826 25.3984 29.7973C23.4655 29.8127 21.6901 30.3633 20.0652 31.4006C19.9205 31.4928 19.863 31.5875 19.8637 31.7623C19.8714 33.3201 19.8682 34.8785 19.8682 36.4363C19.8675 36.5145 19.8675 36.5926 19.8675 36.6969ZM25.9577 20.9698C25.8427 20.7586 25.7381 20.5825 25.6484 20.3987C25.5715 20.2419 25.4591 20.1977 25.2841 20.1983C23.9795 20.206 22.675 20.2073 21.3704 20.1977C21.1611 20.1964 21.0229 20.2668 20.9009 20.4224C20.3797 21.0857 20.0335 21.8349 19.7674 22.6275C19.4561 23.5559 19.4736 24.5131 19.48 25.471C19.4871 26.4589 20.1336 27.105 21.1288 27.1062C22.3043 27.1075 23.4803 27.1069 24.6557 27.1069C24.7326 27.1069 24.8088 27.1069 24.896 27.1069C24.896 26.984 24.896 26.8969 24.896 26.8098C24.896 25.0529 24.896 23.296 24.896 21.5397C24.896 21.0704 24.9993 20.9705 25.4811 20.9698C25.6251 20.9698 25.7685 20.9698 25.9577 20.9698ZM32.2461 17.1512C31.1992 17.1512 30.1814 17.1512 29.1713 17.1512C29.1713 20.4788 29.1713 23.7896 29.1713 27.0928C29.9457 27.0928 30.7 27.0928 31.4556 27.0928C31.4556 26.3245 31.4556 25.5709 31.4556 24.8051C31.3749 24.8051 31.3116 24.8025 31.2477 24.8057C31.0275 24.816 30.8221 24.7949 30.7271 24.5547C30.6361 24.3243 30.7788 24.1802 30.9261 24.0348C31.3207 23.6468 31.7178 23.2608 32.1015 22.8619C32.1796 22.7805 32.239 22.6454 32.2403 22.5347C32.2507 21.5198 32.2468 20.5056 32.2468 19.4908C32.2461 18.7167 32.2461 17.9426 32.2461 17.1512ZM19.077 38.2208C19.077 35.4017 19.077 32.603 19.077 29.812C18.3001 29.812 17.54 29.812 16.7863 29.812C16.7863 32.6248 16.7863 35.4177 16.7863 38.2208C17.5529 38.2208 18.3072 38.2208 19.077 38.2208ZM28.3582 27.0979C28.3582 25.2955 28.3582 23.5201 28.3582 21.7503C27.4554 21.7503 26.5725 21.7503 25.6858 21.7503C25.6858 23.5399 25.6858 25.3154 25.6858 27.0979C26.5842 27.0979 27.467 27.0979 28.3582 27.0979ZM22.2791 18.3249C22.4425 18.6604 22.591 18.9696 22.7434 19.277C22.7705 19.332 22.8112 19.4191 22.8506 19.4223C23.0508 19.4377 23.2588 19.4588 23.4506 19.4178C23.532 19.4005 23.5894 19.2411 23.6437 19.1387C23.82 18.8025 23.9899 18.4632 24.1675 18.1142C24.4116 18.2365 24.6254 18.3434 24.8527 18.4568C24.7668 18.6277 24.688 18.7839 24.6105 18.9408C24.5337 19.0958 24.4587 19.252 24.369 19.4357C24.4826 19.4357 24.5614 19.437 24.6396 19.4357C24.896 19.43 25.2092 19.5094 25.3932 19.3916C25.5663 19.2808 25.6064 18.9619 25.7007 18.7334C25.8854 18.2871 26.0681 17.8395 26.2754 17.3344C26.0694 17.4336 25.9209 17.506 25.7717 17.5757C25.3997 17.7499 25.1065 17.6833 24.854 17.3651C24.7164 17.1916 24.5834 17.0149 24.4258 16.8093C24.2295 17.0149 24.0596 17.2076 23.8736 17.3837C23.5358 17.7044 23.1173 17.6718 22.8248 17.3088C22.7008 17.1551 22.5832 16.9963 22.4392 16.8087C22.2442 17.0136 22.0601 17.1922 21.8929 17.3856C21.6242 17.6961 21.3097 17.7813 20.919 17.6404C20.6903 17.5578 20.4507 17.5072 20.1627 17.4272C20.5327 18.1033 20.8725 18.727 21.2173 19.348C21.2393 19.3877 21.3006 19.4287 21.3452 19.4306C21.5402 19.4396 21.7353 19.4345 21.9555 19.4345C21.8231 19.1527 21.7088 18.9094 21.5893 18.6553C21.825 18.5419 22.0408 18.4388 22.2791 18.3249ZM36.2464 24.0342C35.5495 23.3414 34.8495 22.6448 34.2011 21.9994C33.521 22.6736 32.8216 23.367 32.1493 24.0342C33.4848 24.0342 34.8766 24.0342 36.2464 24.0342ZM33.0198 27.1024C33.0198 26.603 33.0179 26.1253 33.0205 25.6477C33.0224 25.332 33.1613 25.1925 33.4758 25.1899C33.9027 25.1867 34.3296 25.1886 34.7565 25.1893C35.2363 25.1893 35.3403 25.2911 35.3403 25.761C35.3403 26.2054 35.3403 26.6491 35.3403 27.0883C35.6174 27.0883 35.8615 27.0883 36.1004 27.0883C36.1004 26.3213 36.1004 25.5734 36.1004 24.8217C34.8114 24.8217 33.5358 24.8217 32.2649 24.8217C32.2649 25.5914 32.2649 26.345 32.2649 27.1024C32.5174 27.1024 32.7499 27.1024 33.0198 27.1024ZM34.553 27.0954C34.553 26.7138 34.553 26.345 34.553 25.973C34.2953 25.973 34.0512 25.973 33.8116 25.973C33.8116 26.359 33.8116 26.7285 33.8116 27.0954C34.068 27.0954 34.3063 27.0954 34.553 27.0954Z" fill="#0071CE"/>
<path d="M35.3201 19.6802C35.6281 19.6802 35.9225 19.6802 36.2401 19.6802C36.2401 19.9802 36.2401 20.2802 36.2401 20.6002C35.9409 20.6002 35.6393 20.6002 35.3201 20.6002C35.3201 20.3025 35.3201 20.0089 35.3201 19.6802Z" fill="#0071CE"/>
<path d="M17.8323 19.6802C17.8323 20.28 17.8323 20.8798 17.8323 21.5202C17.5338 21.5202 17.2466 21.5202 16.9275 21.5202C16.9275 20.9079 16.9275 20.294 16.9275 19.6802L16.9199 19.6974C17.2268 19.6974 17.5338 19.6974 17.8399 19.6974L17.8323 19.6802Z" fill="#0071CE"/>
<path d="M36.2401 17.8316C35.9399 17.8316 35.6405 17.8316 35.3201 17.8316C35.3201 17.534 35.3201 17.2471 35.3201 16.9283C35.6265 16.9283 35.9329 16.9283 36.2401 16.9283L36.2323 16.9199C36.2323 17.2266 36.2323 17.5333 36.2323 17.8399L36.2401 17.8316Z" fill="#0071CE"/>
<path d="M38.0801 19.6798C38.0801 19.3718 38.0801 19.0774 38.0801 18.7598C38.3801 18.7598 38.6801 18.7598 39.0001 18.7598C39.0001 19.059 39.0001 19.3606 39.0001 19.6798C38.7024 19.6798 38.4088 19.6798 38.0801 19.6798Z" fill="#0071CE"/>
<path d="M16.9275 19.6798C16.9275 19.3799 16.9275 19.08 16.9275 18.7598C17.2261 18.7598 17.5132 18.7598 17.8323 18.7598C17.8323 19.0659 17.8323 19.3728 17.8323 19.6798L17.8399 19.6712C17.533 19.6712 17.2261 19.6712 16.9199 19.6712L16.9275 19.6798Z" fill="#0071CE"/>
<path d="M16 22.4399C16.3099 22.4399 16.6045 22.4399 16.92 22.4399C16.92 22.7424 16.92 23.0416 16.92 23.3599C16.6181 23.3599 16.317 23.3599 16 23.3599C16 23.0591 16 22.7662 16 22.4399Z" fill="#0071CE"/>
<path d="M36.2476 16.92C36.2476 16.6201 36.2476 16.3202 36.2476 16C36.5454 16 36.8325 16 37.1516 16C37.1516 16.3054 37.1516 16.6123 37.1516 16.9192L37.16 16.9114C36.8531 16.9114 36.5461 16.9114 36.24 16.9114L36.2476 16.92Z" fill="#0071CE"/>
<path d="M37.1516 17.8406C37.1516 18.1405 37.1516 18.4396 37.1516 18.7598C36.8538 18.7598 36.5667 18.7598 36.2476 18.7598C36.2476 18.4537 36.2476 18.1468 36.2476 17.8398L36.24 17.8484C36.5469 17.8484 36.8538 17.8484 37.16 17.8484L37.1516 17.8406Z" fill="#0071CE"/>
<path d="M17.8401 16.92C17.8401 16.6042 17.8401 16.3142 17.8401 16C18.1433 16 18.4418 16 18.7601 16C18.7601 16.2997 18.7601 16.6042 18.7601 16.92C18.4521 16.92 18.1473 16.92 17.8401 16.92Z" fill="#0071CE"/>
<path d="M37.1599 16.9283C37.4601 16.9283 37.7602 16.9283 38.0799 16.9283C38.0799 17.2266 38.0799 17.5135 38.0799 17.8323C37.7735 17.8323 37.4663 17.8323 37.1599 17.8323L37.1685 17.8399C37.1685 17.5333 37.1685 17.2266 37.1685 16.9199L37.1599 16.9283Z" fill="#0071CE"/>
<path d="M22.4324 26.1192C22.4324 25.9659 22.4324 25.8335 22.4324 25.705C21.509 25.5742 21.4837 25.5478 21.5359 24.7581C22.1295 24.7581 22.7262 24.7581 23.3405 24.7581C23.3405 24.59 23.3405 24.4514 23.3405 24.2834C22.9263 24.2834 22.5176 24.285 22.1096 24.2827C21.6785 24.2803 21.5244 24.1247 21.5221 23.6888C21.5205 23.3318 21.5213 22.9741 21.5221 22.6172C21.5228 22.1023 21.6571 21.966 22.1648 21.9637C22.2415 21.9629 22.3174 21.9637 22.4225 21.9637C22.4332 21.8181 22.4432 21.6787 22.4539 21.52C22.7438 21.52 23.0345 21.52 23.3481 21.52C23.3551 21.6594 23.3627 21.798 23.3696 21.9335C24.2922 22.0667 24.3153 22.0907 24.2646 22.8804C23.671 22.8804 23.0744 22.8804 22.4593 22.8804C22.4593 23.0484 22.4593 23.187 22.4593 23.3558C22.8734 23.3558 23.2814 23.3543 23.6894 23.3566C24.1205 23.3589 24.2754 23.5146 24.2777 23.9497C24.28 24.3067 24.2784 24.6644 24.2777 25.0213C24.2769 25.5347 24.1412 25.6725 23.6342 25.6756C23.5583 25.6764 23.4816 25.6756 23.3765 25.6756C23.3666 25.8211 23.3574 25.9605 23.3458 26.12C23.0552 26.1192 22.7645 26.1192 22.4324 26.1192Z" fill="#0071CE"/>
<path d="M30.72 17.8398C31.0283 17.8398 31.3148 17.8398 31.64 17.8398C31.64 18.1462 31.64 18.4448 31.64 18.7598C31.3417 18.7598 31.0553 18.7598 30.72 18.7598C30.72 18.47 30.72 18.1715 30.72 17.8398Z" fill="#0071CE"/>
<path d="M29.8 23.3599C29.8 23.0463 29.8 22.7511 29.8 22.4399C30.1062 22.4399 30.3873 22.4399 30.72 22.4399C30.72 22.7335 30.72 23.0351 30.72 23.3599C30.4455 23.3599 30.1494 23.3599 29.8 23.3599Z" fill="#0071CE"/>
<path d="M30.72 22.4399C31.0465 22.4399 31.3283 22.4399 31.64 22.4399C31.64 22.7474 31.64 23.0421 31.64 23.3599C31.3532 23.3599 31.0581 23.3599 30.72 23.3599C30.72 23.0669 30.72 22.765 30.72 22.4399Z" fill="#0071CE"/>
<path d="M30.72 18.7598C30.3986 18.7598 30.1249 18.7598 29.8 18.7598C29.8 18.4582 29.8 18.1597 29.8 17.8398C30.084 17.8398 30.3867 17.8398 30.72 17.8398C30.72 18.1439 30.72 18.4495 30.72 18.7598Z" fill="#0071CE"/>
<path d="M17.8401 30.7202C18.1588 30.7202 18.4478 30.7202 18.7601 30.7202C18.7601 31.3283 18.7601 31.9302 18.7601 32.5602C18.4647 32.5602 18.162 32.5602 17.8401 32.5602C17.8401 31.9573 17.8401 31.3555 17.8401 30.7202Z" fill="#0071CE"/>
<path d="M27.0401 23.3599C26.7174 23.3599 26.4345 23.3599 26.1201 23.3599C26.1201 23.0499 26.1201 22.7516 26.1201 22.4399C26.4312 22.4399 26.714 22.4399 27.0401 22.4399C27.0401 22.7374 27.0401 23.0364 27.0401 23.3599Z" fill="#0071CE"/>
</svg>
