<svg width="55" height="55" viewBox="0 0 55 55" fill="none" xmlns="http://www.w3.org/2000/svg">
<rect width="55" height="55" rx="27.5" fill="#1DAEFF" fill-opacity="0.1"/>
<path d="M27.3594 17.0002C30.9396 17.0002 34.5198 16.9995 38.1 17.0009C38.9137 17.0016 39.5157 17.4418 39.7006 18.1774C39.7407 18.3363 39.7477 18.5072 39.7477 18.6725C39.7498 23.2358 39.7365 27.7991 39.759 32.3625C39.7646 33.4384 38.9777 34.0833 38.0339 34.0812C30.9263 34.065 23.8186 34.0727 16.7117 34.072C15.6294 34.072 15.0007 33.4391 15.0007 32.3512C15 27.797 15 23.2421 15 18.688C15 17.5979 15.6006 17.0009 16.6976 17.0009C20.2518 17.0002 23.806 17.0002 27.3594 17.0002ZM27.3812 17.702C23.8369 17.702 20.2926 17.702 16.7483 17.702C16.0401 17.702 15.756 17.9826 15.756 18.6858C15.7553 23.2485 15.7553 27.8111 15.756 32.3737C15.756 33.027 16.052 33.3245 16.7018 33.3245C23.8081 33.3252 30.9143 33.3252 38.0206 33.3245C38.6542 33.3245 38.9988 32.9919 38.9995 32.3519C39.003 27.7457 39.0023 23.1388 39.0002 18.5325C39.0002 18.0487 38.683 17.7287 38.1992 17.7041C38.112 17.6999 38.0241 17.7027 37.9362 17.7027C34.4172 17.702 30.8996 17.702 27.3812 17.702Z" fill="#0071CE"/>
<path d="M30.4207 37.8893C27.5078 37.8893 24.5957 37.8914 21.6829 37.8851C21.4937 37.8844 21.3967 37.9392 21.2961 38.1073C20.9164 38.7402 20.3116 38.9807 19.602 38.9688C18.9185 38.9575 18.3538 38.6931 18.0127 38.0721C17.9297 37.9217 17.8418 37.8844 17.6864 37.8865C17.0549 37.8935 16.4234 37.8893 15.7911 37.8886C15.5703 37.8886 15.3868 37.8309 15.353 37.5728C15.3172 37.3042 15.4705 37.1404 15.7785 37.1375C16.41 37.1319 17.0415 37.1319 17.6737 37.1382C17.8355 37.1396 17.9177 37.096 18.0176 36.9456C18.1772 36.705 18.3812 36.454 18.628 36.319C19.3404 35.928 20.0781 35.9596 20.7827 36.3682C20.9452 36.4624 21.1365 36.596 21.1977 36.7557C21.3489 37.1467 21.6316 37.1404 21.9677 37.1404C27.6787 37.134 33.3904 37.1354 39.1014 37.1368C39.2231 37.1368 39.349 37.1375 39.4657 37.1671C39.6577 37.2149 39.7259 37.3689 39.7119 37.551C39.6978 37.7233 39.6071 37.8506 39.4221 37.8738C39.3096 37.8879 39.195 37.8886 39.0811 37.8886C36.1928 37.8893 33.3068 37.8893 30.4207 37.8893ZM19.6414 38.1868C19.6505 38.2086 19.6604 38.2297 19.6695 38.2515C19.9375 38.1397 20.2314 38.0651 20.4677 37.9062C20.7743 37.6994 20.7609 37.3253 20.4888 37.0707C20.0493 36.6593 19.2047 36.6706 18.7806 37.0939C18.5443 37.3295 18.5415 37.6249 18.7806 37.8591C19.019 38.0918 19.3165 38.1783 19.6414 38.1868Z" fill="#0071CE"/>
<path d="M33.5325 25.5293C33.536 28.9407 30.7715 31.7079 27.3601 31.7079C23.948 31.7079 21.185 28.9421 21.1885 25.5286C21.1913 22.0855 23.9396 19.3218 27.3608 19.3218C30.7807 19.3218 33.5282 22.0848 33.5325 25.5293ZM32.7856 25.5307C32.7842 22.5075 30.3686 20.0707 27.37 20.0672C24.372 20.0637 21.9297 22.525 21.9339 25.544C21.9381 28.5349 24.3756 30.9667 27.3664 30.9639C30.3566 30.9611 32.787 28.5237 32.7856 25.5307Z" fill="#0071CE"/>
<path d="M24.9311 25.5206C24.9311 24.9151 24.9255 24.3096 24.9325 23.7041C24.9424 22.78 25.794 22.2899 26.5908 22.7596C27.6027 23.356 28.6084 23.9629 29.6091 24.5768C30.3665 25.0417 30.3763 26.0086 29.621 26.4784C28.6084 27.1071 27.5873 27.7231 26.5577 28.3237C25.8109 28.759 24.9466 28.2548 24.9332 27.3898C24.9234 26.7667 24.9311 26.1436 24.9311 25.5206ZM26.0535 27.7013C26.0936 27.683 26.1765 27.6556 26.2504 27.612C27.2265 27.0269 28.2033 26.4411 29.1766 25.8504C29.5036 25.6521 29.5022 25.4123 29.1766 25.2146C28.2026 24.6253 27.2279 24.0374 26.2518 23.4516C25.8812 23.2294 25.678 23.3518 25.6772 23.7941C25.6758 24.3637 25.6765 24.9341 25.6765 25.5037C25.6765 26.1085 25.6744 26.7133 25.678 27.318C25.678 27.5684 25.8003 27.7041 26.0535 27.7013Z" fill="#0071CE"/>
</svg>
