<svg width="50" height="50" viewBox="0 0 50 50" fill="none" xmlns="http://www.w3.org/2000/svg">
<rect width="50" height="50" rx="10" fill="#1DAEFF" fill-opacity="0.1"/>
<path d="M24.8362 13C25.1624 13.1403 25.5193 13.2354 25.808 13.4314C26.364 13.809 26.6332 14.3756 26.6595 15.0469C26.6733 15.3975 26.662 15.7488 26.662 16.1069C26.95 16.2202 27.2393 16.3123 27.5092 16.4444C30.2805 17.8044 31.73 20.0247 31.817 23.1166C31.8458 24.1384 31.8051 25.1641 31.8677 26.1834C31.9949 28.2516 32.7049 30.1231 33.9159 31.8005C34.1982 32.1919 34.5213 32.555 34.8407 32.9182C35.0655 33.1743 35.1838 33.4441 35.0329 33.7716C34.8876 34.0859 34.6196 34.188 34.2853 34.1874C32.286 34.183 30.2867 34.1855 28.2875 34.1855C28.1948 34.1855 28.1028 34.1855 28.0164 34.1855C27.4835 36.2474 25.8086 37.0006 24.5544 37C23.2702 36.9994 21.6078 36.2086 21.0925 34.1855C21.0054 34.1855 20.9134 34.1855 20.8207 34.1855C18.8215 34.1855 16.8222 34.1899 14.8229 34.178C14.6332 34.1767 14.4134 34.1147 14.2613 34.0052C13.9207 33.7591 13.9419 33.3183 14.2369 32.9532C14.7065 32.3709 15.2024 31.8024 15.6044 31.175C16.7539 29.3817 17.2805 27.3981 17.2912 25.2717C17.2956 24.3037 17.248 23.3295 17.3419 22.3696C17.5798 19.9289 18.8089 18.0805 20.8965 16.8132C21.3724 16.5239 21.9046 16.3273 22.4456 16.0712C22.4456 15.8189 22.4449 15.5152 22.4456 15.2115C22.4481 14.0813 23.0836 13.2893 24.1881 13.0369C24.2176 13.0301 24.2451 13.0131 24.2733 13.0013C24.4617 13 24.649 13 24.8362 13ZM32.8758 32.7742C32.7938 32.6577 32.7368 32.5769 32.6805 32.4962C31.3656 30.6096 30.5973 28.5227 30.4596 26.2254C30.3982 25.2054 30.4364 24.1804 30.4088 23.1579C30.3976 22.7384 30.3738 22.3113 30.2874 21.9031C29.6155 18.7386 26.662 16.7581 23.4731 17.3172C20.9979 17.7512 18.9642 19.9139 18.7488 22.409C18.6687 23.3401 18.7 24.2812 18.6981 25.2173C18.6931 27.9209 17.9311 30.3823 16.3626 32.5901C16.325 32.6427 16.2956 32.7009 16.2512 32.7742C21.7981 32.7742 27.3113 32.7742 32.8758 32.7742ZM26.5136 34.1986C25.1987 34.1986 23.8995 34.1986 22.5971 34.1986C22.8081 34.9794 23.6647 35.5868 24.5438 35.5906C25.4373 35.5943 26.2976 34.9913 26.5136 34.1986ZM25.24 15.827C25.24 15.544 25.272 15.2466 25.2319 14.9592C25.1837 14.6167 24.8593 14.3919 24.5237 14.4069C24.1994 14.422 23.9007 14.6687 23.8663 14.9968C23.8375 15.2716 23.8607 15.5522 23.8607 15.8264C24.3209 15.827 24.7623 15.827 25.24 15.827Z" fill="#0071CE"/>
<path d="M14.0107 22.7396C14.1184 20.0315 15.124 17.6459 17.0613 15.6592C17.36 15.353 17.8045 15.3386 18.0869 15.616C18.3693 15.894 18.3699 16.3298 18.0631 16.6429C17.0469 17.6804 16.303 18.8832 15.8553 20.2657C15.5629 21.1705 15.4214 22.1003 15.4152 23.0508C15.4133 23.3614 15.2712 23.5924 14.9881 23.7195C14.7302 23.8347 14.4641 23.8084 14.2725 23.6062C14.1479 23.4747 14.0815 23.28 14.0164 23.1034C13.9832 23.0138 14.0107 22.9024 14.0107 22.7396Z" fill="#0071CE"/>
<path d="M35.1005 22.8015C35.1005 22.8873 35.1017 22.9731 35.1005 23.0589C35.0917 23.4702 34.7855 23.7814 34.3936 23.7789C34.0104 23.7764 33.7318 23.474 33.6911 23.0739C33.6178 22.3463 33.5777 21.6081 33.4199 20.8974C33.0618 19.2845 32.2566 17.9001 31.1139 16.7079C30.9993 16.5883 30.8922 16.4374 30.844 16.2821C30.7469 15.9722 30.8997 15.6566 31.1746 15.5057C31.4551 15.3517 31.7926 15.4005 32.033 15.6428C32.6297 16.2433 33.1513 16.9039 33.5877 17.629C34.5451 19.22 35.0398 20.9469 35.1005 22.8015Z" fill="#0071CE"/>
</svg>
