<svg width="55" height="55" viewBox="0 0 55 55" fill="none" xmlns="http://www.w3.org/2000/svg">
<rect width="55" height="55" rx="27.5" fill="#1DAEFF" fill-opacity="0.1"/>
<path d="M20.747 25.3218C19.8494 25.3218 18.9834 25.3218 18.1227 25.3218C16.829 25.3218 16 24.4876 16 23.1991C16 21.8315 16 20.4586 16 19.091C16 17.8396 16.8396 17 18.0963 17C24.0842 17 30.0722 17 36.0548 17C37.2957 17 38.1353 17.8396 38.1353 19.0805C38.1353 20.4692 38.1353 21.8527 38.1353 23.2414C38.1353 24.477 37.2904 25.3218 36.0548 25.3218C35.2575 25.3218 34.4549 25.3218 33.6575 25.3218C33.5783 25.3218 33.4938 25.3218 33.3935 25.3218C33.3935 25.438 33.3935 25.5383 33.3935 25.6334C33.3935 29.0339 33.3935 32.4345 33.3935 35.835C33.3935 37.1921 32.5803 38 31.2233 38C28.4405 38 25.6578 38 22.875 38C21.5708 38 20.7418 37.1763 20.7418 35.872C20.7418 32.4662 20.7418 29.0551 20.7418 25.6492C20.747 25.5436 20.747 25.4486 20.747 25.3218ZM29.4649 35.6133C29.8187 34.6681 30.051 34.4358 31.0068 34.0609C31.0068 29.5673 31.0068 25.0737 31.0068 20.5854C28.3666 20.5854 25.7475 20.5854 23.1232 20.5854C23.1232 25.0895 23.1232 29.5778 23.1232 34.0714C23.9417 34.2826 24.4486 34.8054 24.6651 35.6133C26.2756 35.6133 27.8703 35.6133 29.4649 35.6133ZM33.4094 24.5298C34.3229 24.5298 35.2205 24.5351 36.1129 24.5298C36.8469 24.5245 37.3485 24.0229 37.3485 23.2784C37.3538 21.8685 37.3538 20.4586 37.3485 19.0435C37.3485 18.299 36.8469 17.7921 36.1129 17.7921C30.088 17.7921 24.0578 17.7921 18.0329 17.7921C17.2937 17.7921 16.7973 18.299 16.7921 19.0382C16.7868 20.4481 16.7921 21.8579 16.7921 23.2731C16.7921 24.0282 17.2937 24.5245 18.0488 24.5245C18.8725 24.5245 19.6963 24.5245 20.52 24.5245C20.5886 24.5245 20.6626 24.514 20.7259 24.5087C20.7259 23.8433 20.7259 23.1939 20.7259 22.5391C20.351 22.5391 19.9972 22.5391 19.6434 22.5391C19.3055 22.5338 19.1629 22.3965 19.1629 22.0533C19.1629 21.4566 19.1629 20.8652 19.1629 20.2685C19.1629 19.8989 19.2949 19.7616 19.6699 19.7616C24.6017 19.7616 29.5336 19.7616 34.4654 19.7616C34.8403 19.7616 34.9723 19.8989 34.9776 20.2633C34.9776 20.8494 34.9776 21.4355 34.9776 22.0216C34.9776 22.3965 34.8403 22.5338 34.476 22.5338C34.1222 22.5338 33.7737 22.5338 33.4094 22.5338C33.4094 23.2097 33.4094 23.8539 33.4094 24.5298ZM21.5338 20.5801C21.5338 20.691 21.5338 20.7755 21.5338 20.8547C21.5338 25.8552 21.5338 30.8557 21.5338 35.8562C21.5338 36.7327 21.9985 37.2079 22.8698 37.2079C25.6683 37.2079 28.4669 37.2079 31.2708 37.2079C32.1421 37.2079 32.6067 36.738 32.6067 35.8562C32.6067 30.8557 32.6067 25.8552 32.6067 20.8547C32.6067 20.7649 32.6067 20.6804 32.6067 20.5801C32.3322 20.5801 32.084 20.5801 31.8147 20.5801C31.8147 20.691 31.8147 20.7913 31.8147 20.8863C31.8147 25.3483 31.8147 29.8154 31.8147 34.2773C31.8147 34.6839 31.7144 34.7895 31.3236 34.8265C30.7375 34.8793 30.2887 35.3387 30.2359 35.9248C30.2042 36.2944 30.088 36.4053 29.7237 36.4053C27.9547 36.4053 26.1805 36.4053 24.4116 36.4053C24.0526 36.4053 23.9364 36.2944 23.8994 35.9248C23.8466 35.3545 23.4242 34.9057 22.8645 34.8318C22.3734 34.7684 22.3206 34.7051 22.3206 34.2034C22.3206 29.7574 22.3206 25.306 22.3206 20.8599C22.3206 20.7649 22.3206 20.6699 22.3206 20.5695C22.046 20.5801 21.8031 20.5801 21.5338 20.5801ZM19.9761 20.5695C19.9761 20.9603 19.9761 21.3457 19.9761 21.7365C20.2349 21.7365 20.483 21.7365 20.7259 21.7365C20.7259 21.3405 20.7259 20.955 20.7259 20.5695C20.4725 20.5695 20.2349 20.5695 19.9761 20.5695ZM34.1644 21.747C34.1644 21.3563 34.1644 20.9708 34.1644 20.5801C33.9057 20.5801 33.6575 20.5801 33.4146 20.5801C33.4146 20.9761 33.4146 21.3616 33.4146 21.747C33.6681 21.747 33.9057 21.747 34.1644 21.747Z" fill="#0071CE"/>
<path d="M27.226 24.1339C28.1237 24.1656 29.0161 24.5141 29.6761 25.3431C30.4893 26.3622 30.4048 27.7404 29.4808 28.6961C28.2135 30.0056 25.9271 30.0056 24.6545 28.6961C23.4981 27.5028 23.7093 25.6969 25.1086 24.7358C25.6842 24.3398 26.3759 24.1286 27.226 24.1339ZM27.0571 28.8862C27.6907 28.8704 28.2451 28.7067 28.7257 28.3159C29.6392 27.582 29.6814 26.3516 28.8154 25.5596C27.865 24.6936 26.228 24.7094 25.2934 25.5913C24.5014 26.3411 24.5014 27.4711 25.2987 28.2103C25.8003 28.6856 26.4076 28.8704 27.0571 28.8862Z" fill="#0071CE"/>
</svg>
