<svg width="55" height="55" viewBox="0 0 55 55" fill="none" xmlns="http://www.w3.org/2000/svg">
<rect width="55" height="55" rx="27.5" fill="#1DAEFF" fill-opacity="0.1"/>
<path d="M15 32.1748C15 27.3226 18.961 23.3555 23.8008 23.3555C28.6901 23.3555 32.6387 27.3041 32.6449 32.1872C32.6449 37.0703 28.6777 41.0065 23.7575 41.0004C18.9424 41.0004 15 37.0208 15 32.1748ZM15.9284 32.1624C15.9222 36.5133 19.4499 40.0658 23.7822 40.0782C28.164 40.0844 31.7042 36.5566 31.7165 32.1872C31.7227 27.8487 28.1826 24.2962 23.8503 24.29C19.4747 24.2838 15.9345 27.8054 15.9284 32.1624Z" fill="#0071CE"/>
<path d="M41.0001 20.564C40.9939 23.6585 38.4936 26.1527 35.4052 26.1403C32.3231 26.128 29.8537 23.6276 29.8599 20.5145C29.8661 17.4695 32.3974 14.9815 35.4857 15.0001C38.5121 15.0125 41.0063 17.5314 41.0001 20.564ZM35.4424 25.2182C37.9737 25.2182 40.0656 23.1325 40.0656 20.6012C40.0718 18.0265 37.9922 15.9285 35.4362 15.9346C32.8492 15.9408 30.7758 18.0142 30.782 20.6074C30.7882 23.1449 32.8863 25.2182 35.4424 25.2182Z" fill="#0071CE"/>
<path d="M24.2835 36.9896C24.2835 37.3856 24.2897 37.7322 24.2835 38.0788C24.2773 38.3945 24.0979 38.6049 23.8317 38.6111C23.5532 38.6173 23.3614 38.4068 23.3552 38.0726C23.349 37.726 23.3552 37.3795 23.3552 36.9896C23.219 36.9896 23.0952 36.9896 22.9776 36.9896C22.4268 36.9772 21.8698 37.0081 21.3314 36.9339C20.6382 36.841 20.1183 36.185 20.1121 35.5104C20.1059 35.2071 20.2669 35.0029 20.5268 34.9719C20.7805 34.9472 20.991 35.1267 21.0343 35.4175C21.1086 35.8755 21.3066 36.055 21.7708 36.055C23.1447 36.055 24.5187 36.0612 25.8927 36.055C26.3754 36.055 26.6106 35.8136 26.6168 35.3495C26.623 34.6811 26.623 34.0126 26.6168 33.3442C26.6168 32.8677 26.3754 32.6387 25.8927 32.6387C24.5311 32.6387 23.1633 32.6387 21.8017 32.6387C20.7434 32.6387 20.1121 32.0074 20.1121 30.9367C20.1121 30.2807 20.1059 29.6184 20.1121 28.9624C20.1183 28.034 20.7744 27.3718 21.7027 27.3594C22.2411 27.3533 22.7858 27.3594 23.3675 27.3594C23.3675 27.0005 23.3675 26.6539 23.3675 26.3135C23.3675 25.9545 23.547 25.7317 23.8317 25.7379C24.1164 25.7379 24.2897 25.9607 24.2897 26.3197C24.2897 26.6539 24.2897 26.9943 24.2897 27.3594C24.8653 27.3594 25.4099 27.3533 25.9607 27.3594C26.7406 27.3718 27.3409 27.8546 27.508 28.5911C27.5328 28.6963 27.5389 28.8015 27.5389 28.9067C27.5328 29.1666 27.3533 29.3647 27.1119 29.3709C26.852 29.3771 26.6911 29.2409 26.6292 28.9995C26.4682 28.3683 26.3692 28.2878 25.7256 28.2878C24.4382 28.2878 23.1509 28.2878 21.8636 28.2878C21.2323 28.2878 21.0405 28.492 21.0405 29.1295C21.0405 29.7113 21.0405 30.293 21.0405 30.8686C21.0405 31.5123 21.2323 31.7041 21.8636 31.7041C23.2004 31.7041 24.5311 31.7041 25.8679 31.7041C26.9077 31.7041 27.5451 32.3416 27.5451 33.3875C27.5451 34.056 27.5513 34.7244 27.5451 35.3928C27.5389 36.3026 26.8829 36.9648 25.9731 36.9772C25.4161 37.0019 24.8653 36.9896 24.2835 36.9896Z" fill="#0071CE"/>
<path d="M34.9658 21.0345C34.285 21.0345 33.6475 21.0345 33.01 21.0345C32.6263 21.0345 32.4097 20.855 32.4159 20.558C32.4221 20.2733 32.6325 20.1062 33.01 20.1062C33.6475 20.1062 34.285 20.1062 34.972 20.1062C34.972 20.0071 34.972 19.9143 34.972 19.8215C34.972 19.2521 34.972 18.6827 34.972 18.1133C34.972 17.7667 35.1453 17.5625 35.4238 17.5563C35.7146 17.5501 35.8941 17.7667 35.8941 18.1257C35.8941 18.7755 35.8941 19.4192 35.8941 20.1062C36.1417 20.1062 36.3831 20.1062 36.6182 20.1062C37.0639 20.1062 37.5095 20.1 37.9551 20.1062C38.2521 20.1123 38.444 20.3042 38.4502 20.5641C38.4502 20.8241 38.2583 21.0221 37.9613 21.0283C37.2867 21.0345 36.6121 21.0283 35.9003 21.0283C35.9003 21.6039 35.9003 22.1609 35.9003 22.7179C35.9003 22.8541 35.9065 22.9902 35.8941 23.1264C35.8756 23.3987 35.6775 23.5844 35.4238 23.5844C35.17 23.5782 34.972 23.3925 34.972 23.114C34.9596 22.5075 34.9658 21.8948 34.9658 21.2883C34.9658 21.2202 34.9658 21.1397 34.9658 21.0345Z" fill="#0071CE"/>
</svg>
